<?xml version="1.0" encoding="UTF-8"?>
<svg xmlns="http://www.w3.org/2000/svg" xmlns:xlink="http://www.w3.org/1999/xlink" width="98pt" height="112pt" viewBox="0 0 98 112" version="1.1">
<g id="surface43343">
<path style="fill:none;stroke-width:2.27;stroke-linecap:butt;stroke-linejoin:miter;stroke:rgb(0%,0%,0%);stroke-opacity:1;stroke-miterlimit:10;" d="M 237.742554 94.131395 L 274.855835 115.561083 " transform="matrix(1,0,0,1,-189.18396,-81.463427)"/>
<path style="fill:none;stroke-width:2.27;stroke-linecap:butt;stroke-linejoin:miter;stroke:rgb(0%,0%,0%);stroke-opacity:1;stroke-miterlimit:10;" d="M 237.742554 84.963427 L 282.797241 110.975145 " transform="matrix(1,0,0,1,-189.18396,-81.463427)"/>
<path style="fill:none;stroke-width:2.27;stroke-linecap:butt;stroke-linejoin:miter;stroke:rgb(0%,0%,0%);stroke-opacity:1;stroke-miterlimit:10;" d="M 274.855835 158.420458 L 237.742554 179.850145 " transform="matrix(1,0,0,1,-189.18396,-81.463427)"/>
<path style="fill:none;stroke-width:2.27;stroke-linecap:butt;stroke-linejoin:miter;stroke:rgb(0%,0%,0%);stroke-opacity:1;stroke-miterlimit:10;" d="M 282.797241 163.002489 L 237.742554 189.018114 " transform="matrix(1,0,0,1,-189.18396,-81.463427)"/>
<path style="fill:none;stroke-width:2.27;stroke-linecap:butt;stroke-linejoin:miter;stroke:rgb(0%,0%,0%);stroke-opacity:1;stroke-miterlimit:10;" d="M 192.68396 110.975145 L 237.742554 84.963427 " transform="matrix(1,0,0,1,-189.18396,-81.463427)"/>
<path style="fill:none;stroke-width:2.27;stroke-linecap:butt;stroke-linejoin:miter;stroke:rgb(0%,0%,0%);stroke-opacity:1;stroke-miterlimit:10;" d="M 282.797241 110.975145 L 282.797241 163.002489 " transform="matrix(1,0,0,1,-189.18396,-81.463427)"/>
<path style="fill:none;stroke-width:2.27;stroke-linecap:butt;stroke-linejoin:miter;stroke:rgb(0%,0%,0%);stroke-opacity:1;stroke-miterlimit:10;" d="M 237.742554 189.018114 L 192.68396 163.002489 " transform="matrix(1,0,0,1,-189.18396,-81.463427)"/>
<path style="fill:none;stroke-width:2.27;stroke-linecap:butt;stroke-linejoin:miter;stroke:rgb(0%,0%,0%);stroke-opacity:1;stroke-miterlimit:10;" d="M 192.68396 163.002489 L 192.68396 110.975145 " transform="matrix(1,0,0,1,-189.18396,-81.463427)"/>
</g>
</svg>
