<?xml version="1.0" encoding="UTF-8"?>
<svg xmlns="http://www.w3.org/2000/svg" xmlns:xlink="http://www.w3.org/1999/xlink" width="98pt" height="112pt" viewBox="0 0 98 112" version="1.1">
<g id="surface20431">
<path style="fill:none;stroke-width:2.27;stroke-linecap:butt;stroke-linejoin:miter;stroke:rgb(0%,0%,0%);stroke-opacity:1;stroke-miterlimit:10;" d="M 224.324219 187.421801 L 179.265625 161.406176 " transform="matrix(1,0,0,1,-175.765625,-79.867113)"/>
<path style="fill:none;stroke-width:2.27;stroke-linecap:butt;stroke-linejoin:miter;stroke:rgb(0%,0%,0%);stroke-opacity:1;stroke-miterlimit:10;" d="M 269.378906 161.406176 L 224.324219 187.421801 " transform="matrix(1,0,0,1,-175.765625,-79.867113)"/>
<path style="fill:none;stroke-width:2.27;stroke-linecap:butt;stroke-linejoin:miter;stroke:rgb(0%,0%,0%);stroke-opacity:1;stroke-miterlimit:10;" d="M 269.378906 109.378832 L 269.378906 161.406176 " transform="matrix(1,0,0,1,-175.765625,-79.867113)"/>
<path style="fill:none;stroke-width:2.27;stroke-linecap:butt;stroke-linejoin:miter;stroke:rgb(0%,0%,0%);stroke-opacity:1;stroke-miterlimit:10;" d="M 224.324219 83.367113 L 269.378906 109.378832 " transform="matrix(1,0,0,1,-175.765625,-79.867113)"/>
<path style="fill:none;stroke-width:2.27;stroke-linecap:butt;stroke-linejoin:miter;stroke:rgb(0%,0%,0%);stroke-opacity:1;stroke-miterlimit:10;" d="M 179.265625 109.378832 L 224.324219 83.367113 " transform="matrix(1,0,0,1,-175.765625,-79.867113)"/>
<path style="fill:none;stroke-width:2.27;stroke-linecap:butt;stroke-linejoin:miter;stroke:rgb(0%,0%,0%);stroke-opacity:1;stroke-miterlimit:10;" d="M 179.265625 161.406176 L 179.265625 109.378832 " transform="matrix(1,0,0,1,-175.765625,-79.867113)"/>
</g>
</svg>
